<?xml version="1.0" standalone="no"?>
<!DOCTYPE svg PUBLIC "-//W3C//DTD SVG 20010904//EN"
 "http://www.w3.org/TR/2001/REC-SVG-20010904/DTD/svg10.dtd">
<svg version="1.0" xmlns="http://www.w3.org/2000/svg"
 width="547.000000pt" height="547.000000pt" viewBox="0 0 547.000000 547.000000"
 preserveAspectRatio="xMidYMid meet">
<metadata>
Created by potrace 1.14, written by Peter Selinger 2001-2017
</metadata>
<g transform="translate(0.000000,547.000000) scale(0.100000,-0.100000)"
fill="#000000" stroke="none">
<path d="M2435 5424 c-60 -7 -132 -17 -160 -23 -27 -5 -66 -13 -85 -15 -101
-16 -322 -82 -470 -141 -252 -101 -561 -285 -742 -443 -71 -62 -155 -141 -217
-206 -89 -94 -90 -95 -136 -151 -21 -28 -42 -52 -45 -55 -16 -14 -135 -186
-186 -270 -52 -86 -192 -364 -198 -393 -2 -7 -7 -23 -13 -37 -65 -163 -115
-356 -157 -602 -27 -163 -28 -594 -2 -748 3 -14 7 -43 10 -65 7 -59 45 -230
67 -310 164 -573 515 -1087 987 -1443 274 -207 586 -361 911 -451 l67 -19 0
1232 0 1232 -641 -1 c-352 0 -645 1 -652 3 -9 3 -12 139 -12 556 l0 553 1975
0 1974 0 -2 -556 -3 -555 -667 0 -668 0 0 -1237 0 -1238 53 15 c116 33 277 88
357 121 122 50 338 164 449 238 90 58 267 192 309 233 10 9 45 42 78 73 366
347 627 783 759 1270 31 114 63 268 71 347 3 31 10 91 14 132 8 78 5 473 -4
525 -3 17 -7 49 -10 73 -16 129 -43 251 -111 492 -53 191 -281 625 -417 795
-314 391 -622 639 -1033 831 -215 100 -525 196 -710 219 -27 3 -63 8 -80 10
-16 3 -48 8 -70 11 -81 12 -481 11 -590 -2z"/>
</g>
</svg>
