<?xml version="1.0" standalone="no"?>
<!DOCTYPE svg PUBLIC "-//W3C//DTD SVG 20010904//EN"
 "http://www.w3.org/TR/2001/REC-SVG-20010904/DTD/svg10.dtd">
<svg version="1.0" xmlns="http://www.w3.org/2000/svg"
 width="547.000000pt" height="547.000000pt" viewBox="0 0 547.000000 547.000000"
 preserveAspectRatio="xMidYMid meet">
<metadata>
Created by potrace 1.14, written by Peter Selinger 2001-2017
</metadata>
<g transform="translate(0.000000,547.000000) scale(0.100000,-0.100000)"
fill="#000000" stroke="none">
<path d="M2480 5459 c-129 -13 -275 -38 -390 -65 -492 -119 -977 -397 -1319
-758 -36 -38 -73 -77 -82 -86 -83 -87 -245 -311 -319 -442 -30 -52 -145 -283
-161 -323 -83 -204 -144 -419 -175 -617 -2 -16 -6 -43 -9 -60 -14 -90 -20
-190 -20 -363 0 -238 12 -375 49 -550 8 -39 17 -82 20 -95 47 -224 190 -570
328 -792 57 -92 161 -239 222 -313 45 -55 44 -54 137 -151 327 -343 734 -592
1193 -730 91 -28 266 -68 339 -79 27 -3 58 -8 69 -10 136 -27 612 -26 749 0
13 3 41 7 64 11 452 66 935 287 1305 594 146 121 324 304 413 425 4 5 21 28
38 50 168 217 333 545 425 846 14 46 27 93 29 104 2 11 11 50 19 86 24 106 27
122 31 156 1 18 5 48 9 65 28 153 28 606 0 752 -2 11 -6 38 -10 61 -25 171
-92 411 -167 595 -42 105 -167 346 -216 418 -22 34 -41 65 -41 71 0 5 -3 11
-8 13 -4 2 -28 32 -54 68 -100 141 -249 307 -388 430 -40 36 -78 70 -84 75
-21 19 -131 101 -196 146 -173 122 -467 270 -650 329 -88 29 -198 62 -215 65
-11 3 -71 15 -134 29 -63 13 -142 27 -175 31 -34 4 -74 9 -91 11 -53 9 -457
11 -535 3z"/>
</g>
</svg>
